# xmcd
#
# Track frame offsets:
#	150
#	16045
#	30562
#	42739
#	58808
#	73407
#	89071
#	104339
#	122278
#	138473
#	154162
#	168431
#
# Disc length: 2442 seconds
#
# Revision: 1
# Processed by: cddbd v1.5.2PL0 Copyright (c) Steve Scherf et al.
# Submitted via: audiograbber 1.83.01
#
DISCID=a709880c
DTITLE=Detour - The Road That Lies Ahead
DYEAR=2009
DGENRE=Bluegrass
TTITLE0=The Road That Lies Ahead
TTITLE1=To My Old Kentucky Home
TTITLE2=Big Red
TTITLE3=Going Nowhere Fast
TTITLE4=Dear Brother
TTITLE5=Sixteen Tons
TTITLE6=Sittin' On Top of the World
TTITLE7=Cold Stones
TTITLE8=Shady Grove
TTITLE9=The Road to Frenchburg
TTITLE10=My Life Ain't Just a Bluegrass Song
TTITLE11=Wilene's Waltz
EXTD=
EXTT0=
EXTT1=
EXTT2=
EXTT3=
EXTT4=
EXTT5=
EXTT6=
EXTT7=
EXTT8=
EXTT9=
EXTT10=
EXTT11=
PLAYORDER=
